<?xml version="1.0" encoding="UTF-8" standalone="no"?>
<svg
   version="1.1"
   preserveAspectRatio="none"
   x="0px"
   y="0px"
   width="720px"
   height="330px"
   viewBox="0 0 720 330"
   id="svg1447"
   sodipodi:docname="body_parts.svg"
   inkscape:version="1.1 (c68e22c387, 2021-05-23)"
   xmlns:inkscape="http://www.inkscape.org/namespaces/inkscape"
   xmlns:sodipodi="http://sodipodi.sourceforge.net/DTD/sodipodi-0.dtd"
   xmlns:xlink="http://www.w3.org/1999/xlink"
   xmlns="http://www.w3.org/2000/svg"
   xmlns:svg="http://www.w3.org/2000/svg">
  <sodipodi:namedview
     id="namedview1449"
     pagecolor="#ffffff"
     bordercolor="#666666"
     borderopacity="1.0"
     inkscape:pageshadow="2"
     inkscape:pageopacity="0.0"
     inkscape:pagecheckerboard="0"
     showgrid="false"
     inkscape:zoom="2"
     inkscape:cx="314.25"
     inkscape:cy="179.75"
     inkscape:window-width="1920"
     inkscape:window-height="1001"
     inkscape:window-x="-9"
     inkscape:window-y="-9"
     inkscape:window-maximized="1"
     inkscape:current-layer="svg1447" />
  <defs
     id="defs126">
    <g
       id="Symbol_8_0_Layer0_0_FILL">
      <path
         fill="#E7E2DA"
         stroke="none"
         d=" M 5.15 8.95 Q 5.1802734375 8.848828125 5.2 8.75 L -9.7 6.05 Q -11.4134765625 8.3953125 -9.95 11.65 L -8.9 11.45 5.15 8.95 Z"
         id="path2" />
      <path
         fill="#637480"
         stroke="none"
         d=" M 5.7 8.85 L 6.2 5.9 -9.2 3.05 Q -10.5 3.65 -9.7 6.05 L 5.2 8.75 5.7 8.85 Z"
         id="path4" />
      <path
         fill="#FFE0B1"
         stroke="none"
         d=" M -8.9 11.45 Q -9.2880859375 16.8732421875 -8.95 22.25 -5.9 25.15 -1.4 26 3.299609375 18.134375 5.15 8.95 L -8.9 11.45 Z"
         id="path6" />
      <path
         fill="#7E95A3"
         stroke="none"
         d=" M 5.6 -3.65 Q 3.75 -6.35 0.55 -6.9 L 0.5 -6.9 Q -0.1 -7 -0.65 -7 -5.7 -7.15 -9.2 3.05 L 6.2 5.9 6.85 2.3 Q 7.45 -0.9 5.6 -3.65 Z"
         id="path8" />
    </g>
    <g
       id="Symbol_9_0_Layer0_0_FILL">
      <path
         fill="#FFE0B1"
         stroke="none"
         d=" M 4.9 -1.85 Q 3.1 -6.8 0.65 -9 L -9 -6.45 Q -10.2 -6.15 -9.95 -5.05 L -9.8 -4.5 Q -7.1 7.6 -0.2 5.8 2.25 5.2 4.65 3.95 6.25 3.15 5.95 1.95 L 5.9 1.7 Q 5.5 0.25 5.1 -1.1 L 5.1 -1.05 4.9 -1.85 M -8.15 -3 Q -8.2 -3.45 -7.05 -4.15 -5.95 -4.85 -4.25 -5.45 -2.5 -6 -1.3 -6.15 0 -6.25 0.05 -5.85 0.15 -5.4 -0.95 -4.7 -2.05 -3.95 -3.8 -3.35 -5.5 -2.75 -6.75 -2.65 -8.05 -2.55 -8.15 -3 Z"
         id="path11" />
      <path
         fill="#E7CBA0"
         stroke="none"
         d=" M -7.05 -4.15 Q -8.2 -3.45 -8.15 -3 -8.05 -2.55 -6.75 -2.65 -5.5 -2.75 -3.8 -3.35 -2.05 -3.95 -0.95 -4.7 0.15 -5.4 0.05 -5.85 0 -6.25 -1.3 -6.15 -2.5 -6 -4.25 -5.45 -5.95 -4.85 -7.05 -4.15 M 5.1 -1.1 Q 8.2 -5.45 0.65 -9 3.1 -6.8 4.9 -1.85 L 5.1 -1.05 5.1 -1.1 Z"
         id="path13" />
    </g>
    <g
       id="Symbol_18_0_Layer0_0_FILL">
      <path
         fill="#B8824D"
         stroke="none"
         d=" M -19 5.95 L -19 10 20 10 20 5.95 -19 5.95 M -19 -6.55 Q -12.3 -8.25 -13.5 -14.4 -14.3 -17.85 -12.9 -21 L -19 -21 -19 -6.55 M 13.9 -21 Q 15.3 -17.85 14.5 -14.4 13.3 -8.25 20 -6.55 L 20 -21 13.9 -21 Z"
         id="path16" />
      <path
         fill="#7E95A3"
         stroke="none"
         d=" M 14.5 -14.4 Q 15.3 -17.85 13.9 -21 L -12.9 -21 Q -14.3 -17.85 -13.5 -14.4 -12.3 -8.25 -19 -6.55 L -19 5.95 20 5.95 20 -6.55 Q 13.3 -8.25 14.5 -14.4 Z"
         id="path18" />
    </g>
    <g
       id="Symbol_18_0_Layer0_1_FILL">
      <path
         fill="#000000"
         fill-opacity="0.10196078431372549"
         stroke="none"
         d=" M -41.35 5.75 L -44.9 5.75 -55.85 5.75 -59.35 5.75 Q -50.35 8.05 -41.35 5.75 Z"
         id="path21" />
      <path
         fill="#9C6E41"
         stroke="none"
         d=" M -46.6 -1.6 L -54.1 -1.6 -56.65 0.75 -55.85 5.75 -44.9 5.75 -44.05 0.75 -46.6 -1.6 M -51.4 -10.75 Q -51.4 -10.3 -51.1 -10 -50.8 -9.65 -50.35 -9.65 -49.9 -9.65 -49.6 -10 -49.3 -10.3 -49.3 -10.75 -49.3 -11.15 -49.6 -11.5 -49.9 -11.8 -50.35 -11.8 -50.8 -11.8 -51.1 -11.5 -51.4 -11.15 -51.4 -10.75 M -61.4 -10.35 L -61.4 -8.35 -50.35 -6.75 -39.3 -8.35 -39.3 -10.35 -50.35 -8.75 -61.4 -10.35 Z"
         id="path23" />
      <path
         fill="#B8824D"
         stroke="none"
         d=" M -54.1 -1.6 L -46.6 -1.6 -44.05 0.75 -44.9 5.75 -41.35 5.75 -40.35 5.75 Q -39.3 5.75 -39.3 4.7 L -39.3 -8.35 -50.35 -6.75 -61.4 -8.35 -61.4 4.7 Q -61.4 5.75 -60.35 5.75 L -59.35 5.75 -55.85 5.75 -56.65 0.75 -54.1 -1.6 M -61.4 -17.2 L -61.4 -10.35 -50.35 -8.75 -39.3 -10.35 -39.3 -17.2 Q -39.3 -18.25 -40.35 -18.25 L -60.35 -18.25 Q -61.4 -18.25 -61.4 -17.2 M -51.1 -10 Q -51.4 -10.3 -51.4 -10.75 -51.4 -11.15 -51.1 -11.5 -50.8 -11.8 -50.35 -11.8 -49.9 -11.8 -49.6 -11.5 -49.3 -11.15 -49.3 -10.75 -49.3 -10.3 -49.6 -10 -49.9 -9.65 -50.35 -9.65 -50.8 -9.65 -51.1 -10 Z"
         id="path25" />
    </g>
    <g
       id="Symbol_17_0_Layer0_0_FILL">
      <path
         fill="#D7BD93"
         stroke="none"
         d=" M -7.35 1.7 Q -4.4 3.65 -0.2 3.65 4 3.65 6.95 1.7 8.7 0.55 9.4 -0.9 L -9.8 -0.9 Q -9.1 0.55 -7.35 1.7 Z"
         id="path28" />
      <path
         fill="#FFE0B1"
         stroke="none"
         d=" M 19.15 -5.45 Q 20.7 -15.55 19.1 -26.1 18.45 -30.55 14 -30.55 L -16.35 -30.55 Q -20.75 -30.55 -21.45 -26 -22.95 -15.7 -21.45 -5.4 -20.75 -0.9 -16.35 -0.9 L -9.8 -0.9 9.4 -0.9 14 -0.9 Q 18.45 -0.9 19.15 -5.45 Z"
         id="path30" />
    </g>
    <g
       id="Symbol_17_0_Layer0_1_FILL">
      <path
         fill="#5D5454"
         stroke="none"
         d=" M 0 -6.35 L 19.8 -13.2 Q -1 -7.6251953125 -21.8 -12.3 L 0 -6.35 M 14.15 -47.55 Q 14.7546875 -48.1908203125 15.65 -48.35 7.05 -49.6 -4.3 -45.3 -4.55 -45.25 -4.8 -45.15 -10.5 -43.45 -17.85 -40.05 L -19.1 -36.95 -22.2 -38.3 -25.2 -31.55 Q -27.888671875 -24.348046875 -22.65 -12.55 -22.43046875 -12.0466796875 -22.2 -11.55 L -21.9 -12.35 -16.2 -26.45 Q -7.357421875 -42.121875 14.15 -47.55 M 13.05 -44.45 L 17.15 -25.7 20.65 -19.3 20.65 -34.3 13.05 -44.45 Z"
         id="path33" />
      <path
         fill="#544B4B"
         stroke="none"
         d=" M 13.05 -44.45 Q 13.2607421875 -46.5572265625 14.15 -47.55 -7.357421875 -42.121875 -16.2 -26.45 L -21.9 -12.35 -21.8 -12.3 Q -1 -7.6251953125 19.8 -13.2 L 20.65 -19.3 17.15 -25.7 13.05 -44.45 Z"
         id="path35" />
    </g>
    <g
       id="Symbol_16_0_Layer0_0_MEMBER_0_FILL">
      <path
         fill="#D7BD93"
         stroke="none"
         d=" M 6.6 3.15 Q 8.35 2 9.05 0.55 L -10.15 0.55 Q -9.45 2 -7.7 3.15 -4.75 5.1 -0.55 5.1 3.65 5.1 6.6 3.15 Z"
         id="path38" />
      <path
         fill="#FFE0B1"
         stroke="none"
         d=" M 13.75 -7.5 Q 18.4 -5.9 19.55 -12.1 19.6 -14.8 19.5 -17.55 19.3 -21.05 18.75 -24.65 18.1 -29.1 13.65 -29.1 L -16.7 -29.1 Q -21.1 -29.1 -21.8 -24.55 -22.35 -20.65 -22.5 -16.7 -19.25 -5.45 -14.05 -7.85 -12.9 -8.3 -11.7 -8.65 -6.75 -10.15 -0.6 -10.15 7.6 -10.15 13.75 -7.5 Z"
         id="path40" />
      <path
         fill="#E7E2DA"
         stroke="none"
         d=" M 18.9 -4.45 Q 19.45 -8.25 19.55 -12.1 18.4 -5.9 13.75 -7.5 7.6 -10.15 -0.6 -10.15 -6.75 -10.15 -11.7 -8.65 -12.9 -8.3 -14.05 -7.85 -19.25 -5.45 -22.5 -16.7 -22.75 -10.35 -21.8 -3.95 -21.7 -3.4 -21.55 -2.95 -21.4 -2.25 -21.05 -1.7 -19.8 0.55 -16.7 0.55 L -10.15 0.55 9.05 0.55 13.65 0.55 Q 17.85 0.55 18.7 -3.45 18.75 -3.75 18.8 -4 18.85 -4.25 18.9 -4.45 Z"
         id="path42" />
    </g>
    <g
       id="Symbol_16_0_Layer0_1_FILL">
      <path
         fill="#FFFFFF"
         stroke="none"
         d=" M -5.1 -17.55 Q -6.1 -18.65 -7.65 -18.65 -9.2 -18.65 -10.3 -17.55 -11.3 -16.4 -11.3 -14.85 -11.3 -13.3 -10.3 -12.2 -9.2 -11.05 -7.65 -11.05 -6.1 -11.05 -5.1 -12.2 -4 -13.3 -4 -14.85 -4 -16.4 -5.1 -17.55 M 14.6 -14.85 Q 14.6 -16.4 13.5 -17.55 12.5 -18.65 10.95 -18.65 9.4 -18.65 8.3 -17.55 7.3 -16.4 7.3 -14.85 7.3 -13.3 8.3 -12.2 9.4 -11.05 10.95 -11.05 12.5 -11.05 13.5 -12.2 14.6 -13.3 14.6 -14.85 Z"
         id="path45" />
      <path
         fill="#544B4B"
         stroke="none"
         d=" M 7.55 -22.6 L 6.9 -19.4 15.7 -19.4 Q 12.95 -22.85 7.55 -22.6 M -3.95 -20.3 L -4.6 -23.5 Q -10 -23.75 -12.75 -20.3 L -3.95 -20.3 Z"
         id="path47" />
    </g>
    <g
       id="Symbol_16_0_Layer0_1_MEMBER_0_FILL">
      <path
         fill="#7F7058"
         stroke="none"
         d=" M -62.55 -10.95 L -69.55 -10.95 Q -69.8 -10.6 -70 -10.2 -70.25 -9.75 -70.35 -9.25 -70.45 -8.9 -70.35 -8.65 -70.25 -8.3 -69.95 -8.15 -69.7 -7.95 -69.4 -7.95 L -59.7 -7.95 Q -59.4 -7.95 -59.1 -8.15 -58.85 -8.3 -58.75 -8.65 -58.65 -8.9 -58.7 -9.25 -58.85 -9.75 -59.1 -10.2 -59.55 -11.1 -60.3 -11.85 L -60.35 -11.9 Q -61.35 -12.9 -62.6 -13.35 L -62.55 -10.95 Z"
         id="path50" />
      <path
         fill="#FFFFFF"
         stroke="none"
         d=" M -62.6 -13.35 Q -63.5 -13.65 -64.55 -13.65 -67 -13.65 -68.8 -11.85 -69.25 -11.45 -69.55 -10.95 L -62.55 -10.95 -62.6 -13.35 Z"
         id="path52" />
    </g>
    <g
       id="Symbol_16_0_Layer0_1_MEMBER_1_FILL">
      <path
         fill="#7F7058"
         stroke="none"
         d=" M -4.6 -12.65 Q -3.95 -13.55 -3.95 -14.85 -3.95 -16.15 -4.6 -17.1 -5.2 -18 -6.1 -18 -7 -18 -7.65 -17.1 -8.25 -16.15 -8.25 -14.85 -8.25 -13.55 -7.65 -12.65 -7 -11.7 -6.1 -11.7 -5.2 -11.7 -4.6 -12.65 M 12.25 -12.65 Q 12.9 -13.55 12.9 -14.85 12.9 -16.15 12.25 -17.1 11.65 -18 10.75 -18 9.85 -18 9.2 -17.1 8.6 -16.15 8.6 -14.85 8.6 -13.55 9.2 -12.65 9.85 -11.7 10.75 -11.7 11.65 -11.7 12.25 -12.65 Z"
         id="path55" />
    </g>
    <g
       id="Symbol_16_0_Layer0_2_FILL">
      <path
         fill="#5D5454"
         stroke="none"
         d=" M 14.15 -47.55 Q 14.7546875 -48.1908203125 15.65 -48.35 7.05 -49.6 -4.3 -45.3 -4.55 -45.25 -4.8 -45.15 -10.5 -43.45 -17.85 -40.05 L -19.1 -36.95 -22.2 -38.3 -25.2 -31.55 Q -28 -24.05 -22.2 -11.55 L -16.2 -26.45 Q -7.357421875 -42.121875 14.15 -47.55 M 13.05 -44.45 L 17.15 -25.7 19.55 -17.55 20.65 -34.3 13.05 -44.45 Z"
         id="path58" />
      <path
         fill="#544B4B"
         stroke="none"
         d=" M 1.7 -25.9 Q 8.9099609375 -24.3138671875 17.15 -25.7 L 13.05 -44.45 Q 13.2607421875 -46.5572265625 14.15 -47.55 -7.357421875 -42.121875 -16.2 -26.45 -10.8669921875 -29.1984375 -5.1 -27.9 -2.0802734375 -27.026953125 0 -24.35 L 1.7 -25.9 Z"
         id="path60" />
    </g>
    <g
       id="Symbol_11_0_Layer0_0_FILL">
      <path
         fill="#916B4E"
         stroke="none"
         d=" M 8.95 9.25 L 9 6.35 -8.75 6.35 -8.75 8.35 8.95 9.25 Z"
         id="path63" />
      <path
         fill="#AA7E5C"
         stroke="none"
         d=" M 8.95 16 L 8.95 9.25 -8.75 8.35 -7.2 11 -8.75 11 Q -10.55 11.9 -12 13.85 L -12 16 8.95 16 Z"
         id="path65" />
      <path
         fill="#E0C1A2"
         stroke="none"
         d=" M 9 6.35 L 9 2.95 -8.75 2.95 -8.75 6.35 9 6.35 Z"
         id="path67" />
      <path
         fill="#ECCFB1"
         stroke="none"
         d=" M 6.45 -4.5 Q 3.85 -7 0.15 -7 L 0.1 -7 Q -3.6 -7 -6.15 -4.5 -8.75 -1.95 -8.75 1.7 L -8.75 2.95 9 2.95 9 1.7 Q 9 -1.95 6.45 -4.5 Z"
         id="path69" />
    </g>
    <g
       id="Symbol_10_0_Layer0_0_FILL">
      <path
         fill="#B8824D"
         stroke="none"
         d=" M 20 10 L 20 5.95 -5.6 5.95 -16.55 5.95 -19 5.95 -19 10 20 10 M -11.1 -18.6 Q -11.75 -19.75 -12.6 -21 L -19 -21 -19 -3.55 Q -6.1 -5.75 -9.5 -15.2 L -11.8 -16.4 Q -11.65 -17.55 -11.1 -18.6 M 20 -21 L 13.9 -21 Q 15.3 -17.85 14.5 -14.4 13.3 -8.25 20 -6.55 L 20 -21 Z"
         id="path72" />
      <path
         fill="#E0C79A"
         stroke="none"
         d=" M 2.6 -9.1 L 13.9 -21 -9.3 -21 2.6 -9.1 Z"
         id="path74" />
      <path
         fill="#637480"
         stroke="none"
         d=" M 14.5 -14.4 Q 15.3 -17.85 13.9 -21 L 2.6 -9.1 14.5 -14.4 M -11.1 -18.6 Q -11.65 -17.55 -11.8 -16.4 L -9.5 -15.2 2.6 -9.1 -9.3 -21 Q -10.45 -19.9 -11.1 -18.6 Z"
         id="path76" />
      <path
         fill="#7E95A3"
         stroke="none"
         d=" M -9.5 -15.2 Q -6.1 -5.75 -19 -3.55 L -19 5.95 -16.55 5.95 -9.3 0.9 -5.6 5.95 20 5.95 20 -6.55 Q 13.3 -8.25 14.5 -14.4 L 2.6 -9.1 -9.5 -15.2 M 3.75 -5.5 Q 3.25 -5.95 3.25 -6.55 3.25 -7.15 3.75 -7.65 4.2 -8.1 4.8 -8.1 5.4 -8.1 5.85 -7.65 6.3 -7.15 6.3 -6.55 6.3 -5.95 5.85 -5.5 5.4 -5.05 4.8 -5.05 4.2 -5.05 3.75 -5.5 M 2.4 -1.2 Q 6 -1.2 8.55 -0.55 10.85 0.1 11.1 0.9 L -6.25 0.9 Q -6.05 0.1 -3.75 -0.55 -1.2 -1.2 2.4 -1.2 M -12.6 -21 Q -11.75 -19.75 -11.1 -18.6 -10.45 -19.9 -9.3 -21 L -12.6 -21 Z"
         id="path78" />
      <path
         fill="#738895"
         stroke="none"
         d=" M 8.55 -0.55 Q 6 -1.2 2.4 -1.2 -1.2 -1.2 -3.75 -0.55 -6.05 0.1 -6.25 0.9 L 11.1 0.9 Q 10.85 0.1 8.55 -0.55 Z"
         id="path80" />
      <path
         fill="#E7E2DA"
         stroke="none"
         d=" M 3.25 -6.55 Q 3.25 -5.95 3.75 -5.5 4.2 -5.05 4.8 -5.05 5.4 -5.05 5.85 -5.5 6.3 -5.95 6.3 -6.55 6.3 -7.15 5.85 -7.65 5.4 -8.1 4.8 -8.1 4.2 -8.1 3.75 -7.65 3.25 -7.15 3.25 -6.55 M -9.3 0.9 L -16.55 5.95 -5.6 5.95 -9.3 0.9 Z"
         id="path82" />
    </g>
    <g
       id="Symbol_12_0_Layer0_0_MEMBER_0_FILL">
      <path
         fill="#D7BD93"
         stroke="none"
         d=" M 923.8 609.2 Q 928 609.2 930.95 607.25 932.7 606.1 933.4 604.65 L 914.2 604.65 Q 914.9 606.1 916.65 607.25 919.6 609.2 923.8 609.2 Z"
         id="path85" />
      <path
         fill="#E7E2DA"
         stroke="none"
         d=" M 943.15 600.1 Q 943.2 599.85 943.25 599.65 943.8 595.85 943.9 592 942.75 598.2 938.1 596.6 931.95 593.95 923.75 593.95 917.6 593.95 912.65 595.45 911.45 595.8 910.3 596.25 905.1 598.65 901.85 587.4 901.6 593.75 902.55 600.15 902.65 600.7 902.8 601.15 902.95 601.85 903.3 602.4 904.55 604.65 907.65 604.65 L 914.2 604.65 933.4 604.65 938 604.65 Q 942.2 604.65 943.05 600.65 943.1 600.35 943.15 600.1 Z"
         id="path87" />
      <path
         fill="#FFE0B1"
         stroke="none"
         d=" M 902.55 579.55 Q 902 583.45 901.85 587.4 905.1 598.65 910.3 596.25 911.45 595.8 912.65 595.45 917.6 593.95 923.75 593.95 931.95 593.95 938.1 596.6 942.75 598.2 943.9 592 943.95 589.3 943.85 586.55 943.65 583.05 943.1 579.45 942.45 575 938 575 L 907.65 575 Q 903.25 575 902.55 579.55 Z"
         id="path89" />
    </g>
    <g
       id="Symbol_12_0_Layer0_1_FILL">
      <path
         fill="#544B4B"
         stroke="none"
         d=" M 7.55 -21.6 L 6.9 -18.4 15.7 -18.4 Q 12.95 -21.85 7.55 -21.6 M -3.95 -17.3 L -4.6 -20.5 Q -10 -20.75 -12.75 -17.3 L -3.95 -17.3 Z"
         id="path92" />
      <path
         fill="#7F7058"
         stroke="none"
         d=" M -8.95 -15.15 Q -9.05 -14.7 -9.05 -14.2 -9.05 -12.9 -8.45 -12 -8.3 -11.8 -8.15 -11.65 -7.6 -11.05 -6.9 -11.05 -6.2 -11.05 -5.65 -11.65 -5.5 -11.8 -5.4 -12 -4.75 -12.9 -4.75 -14.2 -4.75 -14.7 -4.85 -15.15 L -8.95 -15.15 M 12.1 -14.2 Q 12.1 -14.7 12 -15.15 L 7.9 -15.15 Q 7.8 -14.7 7.8 -14.2 7.8 -12.9 8.4 -12 8.55 -11.8 8.7 -11.65 9.25 -11.05 9.95 -11.05 10.65 -11.05 11.2 -11.65 11.35 -11.8 11.45 -12 12.1 -12.9 12.1 -14.2 M 6.5 -8.45 Q 6.2 -8.65 5.9 -8.65 L 3.05 -8.65 3.05 -5.65 -3.95 -5.65 Q -3.65 -5.15 -3.2 -4.75 -1.4 -2.95 1.05 -2.95 3.5 -2.95 5.25 -4.7 L 5.3 -4.75 Q 6.05 -5.5 6.5 -6.4 6.75 -6.85 6.9 -7.35 6.95 -7.7 6.85 -7.95 6.75 -8.3 6.5 -8.45 Z"
         id="path94" />
      <path
         fill="#FFFFFF"
         stroke="none"
         d=" M -9.05 -14.2 Q -9.05 -14.7 -8.95 -15.15 L -11.2 -15.15 Q -11.3 -14.7 -11.3 -14.2 -11.3 -12.7 -10.4 -11.65 -10.35 -11.6 -10.3 -11.55 -9.2 -10.4 -7.65 -10.4 -6.1 -10.4 -5.1 -11.55 -5.05 -11.6 -5 -11.65 -4 -12.7 -4 -14.2 -4 -14.7 -4.1 -15.15 L -4.85 -15.15 Q -4.75 -14.7 -4.75 -14.2 -4.75 -12.9 -5.4 -12 -5.5 -11.8 -5.65 -11.65 -6.2 -11.05 -6.9 -11.05 -7.6 -11.05 -8.15 -11.65 -8.3 -11.8 -8.45 -12 -9.05 -12.9 -9.05 -14.2 M 12 -15.15 Q 12.1 -14.7 12.1 -14.2 12.1 -12.9 11.45 -12 11.35 -11.8 11.2 -11.65 10.65 -11.05 9.95 -11.05 9.25 -11.05 8.7 -11.65 8.55 -11.8 8.4 -12 7.8 -12.9 7.8 -14.2 7.8 -14.7 7.9 -15.15 L 7.4 -15.15 Q 7.3 -14.7 7.3 -14.2 7.3 -12.7 8.2 -11.65 8.25 -11.6 8.3 -11.55 9.4 -10.4 10.95 -10.4 12.5 -10.4 13.5 -11.55 13.55 -11.6 13.6 -11.65 14.6 -12.7 14.6 -14.2 14.6 -14.7 14.5 -15.15 L 12 -15.15 M 3.05 -5.65 L 3.05 -8.65 -3.8 -8.65 Q -4.1 -8.65 -4.35 -8.45 -4.65 -8.3 -4.75 -7.95 -4.85 -7.7 -4.75 -7.35 -4.65 -6.85 -4.4 -6.4 -4.2 -6 -3.95 -5.65 L 3.05 -5.65 Z"
         id="path96" />
    </g>
    <g
       id="Symbol_12_0_Layer0_2_FILL">
      <path
         fill="#544B4B"
         stroke="none"
         d=" M 1.7 -25.9 Q 8.9099609375 -24.3138671875 17.15 -25.7 L 13.05 -44.45 Q 13.2607421875 -46.5572265625 14.15 -47.55 -7.357421875 -42.121875 -16.2 -26.45 -10.8669921875 -29.1984375 -5.1 -27.9 -2.0802734375 -27.026953125 0 -24.35 L 1.7 -25.9 Z"
         id="path99" />
      <path
         fill="#5D5454"
         stroke="none"
         d=" M 13.05 -44.45 L 17.15 -25.7 19.55 -17.55 20.65 -34.3 13.05 -44.45 M 14.15 -47.55 Q 14.7546875 -48.1908203125 15.65 -48.35 7.05 -49.6 -4.3 -45.3 -4.55 -45.25 -4.8 -45.15 -10.5 -43.45 -17.85 -40.05 L -19.1 -36.95 -22.2 -38.3 -25.2 -31.55 Q -28 -24.05 -22.2 -11.55 L -16.2 -26.45 Q -7.357421875 -42.121875 14.15 -47.55 Z"
         id="path101" />
    </g>
    <g
       id="Symbol_15_0_Layer0_0_MEMBER_0_FILL">
      <path
         fill="#D7BD93"
         stroke="none"
         d=" M 6.6 3.15 Q 8.35 2 9.05 0.55 L -10.15 0.55 Q -9.45 2 -7.7 3.15 -4.75 5.1 -0.55 5.1 3.65 5.1 6.6 3.15 Z"
         id="path104" />
      <path
         fill="#FFE0B1"
         stroke="none"
         d=" M 13.75 -7.5 Q 18.4 -5.9 19.55 -12.1 19.6 -14.8 19.5 -17.55 19.3 -21.05 18.75 -24.65 18.1 -29.1 13.65 -29.1 L -16.7 -29.1 Q -21.1 -29.1 -21.8 -24.55 -22.35 -20.65 -22.5 -16.7 -19.25 -5.45 -14.05 -7.85 -12.9 -8.3 -11.7 -8.65 -6.75 -10.15 -0.6 -10.15 7.6 -10.15 13.75 -7.5 Z"
         id="path106" />
      <path
         fill="#E7E2DA"
         stroke="none"
         d=" M 18.9 -4.45 Q 19.45 -8.25 19.55 -12.1 18.4 -5.9 13.75 -7.5 7.6 -10.15 -0.6 -10.15 -6.75 -10.15 -11.7 -8.65 -12.9 -8.3 -14.05 -7.85 -19.25 -5.45 -22.5 -16.7 -22.75 -10.35 -21.8 -3.95 -21.7 -3.4 -21.55 -2.95 -21.4 -2.25 -21.05 -1.7 -19.8 0.55 -16.7 0.55 L -10.15 0.55 9.05 0.55 13.65 0.55 Q 17.85 0.55 18.7 -3.45 18.75 -3.75 18.8 -4 18.85 -4.25 18.9 -4.45 Z"
         id="path108" />
    </g>
    <g
       id="Symbol_15_0_Layer0_1_FILL">
      <path
         fill="#544B4B"
         stroke="none"
         d=" M 6.3 -21.6 L 6.5 -18.35 15 -20.6 Q 11.45 -23.2 6.3 -21.6 M -3.5 -20.2 L -3.3 -23.5 Q -8.45 -25.15 -12 -22.5 L -3.5 -20.2 Z"
         id="path111" />
      <path
         fill="#7F7058"
         stroke="none"
         d=" M 7.65 -5.7 Q 8.05 -5.85 8.25 -6.2 8.4 -6.55 8.3 -6.95 8.15 -7.35 7.8 -7.5 7.45 -7.7 7.05 -7.6 1.7 -5.9 -2.25 -8.45 -2.6 -8.7 -3 -8.6 -3.4 -8.55 -3.6 -8.2 -3.85 -7.85 -3.75 -7.45 -3.7 -7.05 -3.35 -6.8 1.3 -3.7 7.65 -5.7 Z"
         id="path113" />
      <path
         fill="#FFFFFF"
         stroke="none"
         d=" M -5.1 -17.55 Q -6.1 -18.65 -7.65 -18.65 -9.2 -18.65 -10.3 -17.55 -11.3 -16.4 -11.3 -14.85 -11.3 -13.3 -10.3 -12.2 -9.2 -11.05 -7.65 -11.05 -6.1 -11.05 -5.1 -12.2 -4 -13.3 -4 -14.85 -4 -16.4 -5.1 -17.55 M 13.5 -17.55 Q 12.5 -18.65 10.95 -18.65 9.4 -18.65 8.3 -17.55 7.3 -16.4 7.3 -14.85 7.3 -13.3 8.3 -12.2 9.4 -11.05 10.95 -11.05 12.5 -11.05 13.5 -12.2 14.6 -13.3 14.6 -14.85 14.6 -16.4 13.5 -17.55 Z"
         id="path115" />
    </g>
    <g
       id="Symbol_15_0_Layer0_1_MEMBER_0_FILL">
      <path
         fill="#7F7058"
         stroke="none"
         d=" M -5.4 -12.65 Q -4.75 -13.55 -4.75 -14.85 -4.75 -16.15 -5.4 -17.1 -6 -18 -6.9 -18 -7.8 -18 -8.45 -17.1 -9.05 -16.15 -9.05 -14.85 -9.05 -13.55 -8.45 -12.65 -7.8 -11.7 -6.9 -11.7 -6 -11.7 -5.4 -12.65 M 11.45 -12.65 Q 12.1 -13.55 12.1 -14.85 12.1 -16.15 11.45 -17.1 10.85 -18 9.95 -18 9.05 -18 8.4 -17.1 7.8 -16.15 7.8 -14.85 7.8 -13.55 8.4 -12.65 9.05 -11.7 9.95 -11.7 10.85 -11.7 11.45 -12.65 Z"
         id="path118" />
    </g>
    <g
       id="Symbol_15_0_Layer0_2_FILL">
      <path
         fill="#5D5454"
         stroke="none"
         d=" M 14.15 -47.55 Q 14.7546875 -48.1908203125 15.65 -48.35 7.05 -49.6 -4.3 -45.3 -4.55 -45.25 -4.8 -45.15 -10.5 -43.45 -17.85 -40.05 L -19.1 -36.95 -22.2 -38.3 -25.2 -31.55 Q -28 -24.05 -22.2 -11.55 L -16.2 -26.45 Q -7.357421875 -42.121875 14.15 -47.55 M 13.05 -44.45 L 17.15 -25.7 19.55 -17.55 20.65 -34.3 13.05 -44.45 Z"
         id="path121" />
      <path
         fill="#544B4B"
         stroke="none"
         d=" M 1.7 -25.9 Q 8.9099609375 -24.3138671875 17.15 -25.7 L 13.05 -44.45 Q 13.2607421875 -46.5572265625 14.15 -47.55 -7.357421875 -42.121875 -16.2 -26.45 -10.8669921875 -29.1984375 -5.1 -27.9 -2.0802734375 -27.026953125 0 -24.35 L 1.7 -25.9 Z"
         id="path123" />
    </g>
  </defs>
  <g
     transform="translate(444.20545,135.01728)"
     id="g166">
    <g
       id="g160">
      <use
         xlink:href="#Symbol_17_0_Layer0_0_FILL"
         id="use158"
         x="0"
         y="0"
         width="100%"
         height="100%" />
    </g>
    <g
       id="g164">
      <use
         xlink:href="#Symbol_17_0_Layer0_1_FILL"
         id="use162"
         x="0"
         y="0"
         width="100%"
         height="100%" />
    </g>
  </g>
  <g
     transform="translate(323.80545,134.96728)"
     id="g188">
    <g
       id="g170">
      <use
         xlink:href="#Symbol_16_0_Layer0_0_MEMBER_0_FILL"
         id="use168"
         x="0"
         y="0"
         width="100%"
         height="100%" />
    </g>
    <g
       id="g174">
      <use
         xlink:href="#Symbol_16_0_Layer0_1_FILL"
         id="use172"
         x="0"
         y="0"
         width="100%"
         height="100%" />
    </g>
    <g
       transform="translate(66.85,4.9)"
       id="g178">
      <use
         xlink:href="#Symbol_16_0_Layer0_1_MEMBER_0_FILL"
         id="use176"
         x="0"
         y="0"
         width="100%"
         height="100%" />
    </g>
    <g
       transform="translate(-0.8)"
       id="g182">
      <use
         xlink:href="#Symbol_16_0_Layer0_1_MEMBER_1_FILL"
         id="use180"
         x="0"
         y="0"
         width="100%"
         height="100%" />
    </g>
    <g
       id="g186">
      <use
         xlink:href="#Symbol_16_0_Layer0_2_FILL"
         id="use184"
         x="0"
         y="0"
         width="100%"
         height="100%" />
    </g>
  </g>
  <g
     id="body_FL_FL_FL_FL_FL_FL_FL_FL_FL_FL_FL_FL_FL_FL_FL_FL_FL_FL_FL_FL"
     transform="translate(265.20545,180.31728)">
    <g
       id="g1012">
      <use
         xlink:href="#Symbol_10_0_Layer0_0_FILL"
         id="use1010"
         x="0"
         y="0"
         width="100%"
         height="100%" />
    </g>
  </g>
  <g
     id="armRight_FL_FL_FL_FL_FL_FL_FL_FL_FL_FL_FL_FL_FL_FL_FL_FL_FL_FL_FL_FL_FL_FL"
     transform="matrix(-1,0,0,1,360.20545,172.31728)">
    <g
       id="g1017">
      <use
         xlink:href="#Symbol_8_0_Layer0_0_FILL"
         id="use1015"
         x="0"
         y="0"
         width="100%"
         height="100%" />
    </g>
  </g>
  <g
     id="handRight_FL_FL_FL_FL_FL_FL_FL_FL_FL_FL_FL_FL_FL_FL_FL_FL_FL_FL_FL_FL_FL"
     transform="matrix(-1,0,0,1,358.20545,222.31728)">
    <g
       id="g1022">
      <use
         xlink:href="#Symbol_9_0_Layer0_0_FILL"
         id="use1020"
         x="0"
         y="0"
         width="100%"
         height="100%" />
    </g>
  </g>
  <g
     id="legRight_FL_FL_FL_FL_FL_FL_FL_FL_FL_FL_FL_FL_FL_FL_FL_FL_FL_FL_FL"
     transform="matrix(-1,0,0,1,323.20545,214.31728)">
    <g
       id="g1027">
      <use
         xlink:href="#Symbol_11_0_Layer0_0_FILL"
         id="use1025"
         x="0"
         y="0"
         width="100%"
         height="100%" />
    </g>
  </g>
  <g
     id="head_FL_FL_FL_FL_FL_FL_FL_FL_FL"
     transform="translate(264.60545,133.56728)">
    <g
       transform="translate(-924.35,-604.1)"
       id="g1032">
      <use
         xlink:href="#Symbol_12_0_Layer0_0_MEMBER_0_FILL"
         id="use1030"
         x="0"
         y="0"
         width="100%"
         height="100%" />
    </g>
    <g
       id="g1036">
      <use
         xlink:href="#Symbol_12_0_Layer0_1_FILL"
         id="use1034"
         x="0"
         y="0"
         width="100%"
         height="100%" />
    </g>
    <g
       id="g1040">
      <use
         xlink:href="#Symbol_12_0_Layer0_2_FILL"
         id="use1038"
         x="0"
         y="0"
         width="100%"
         height="100%" />
    </g>
  </g>
  <g
     transform="translate(383.80545,135.01728)"
     id="g1177">
    <g
       id="g1163">
      <use
         xlink:href="#Symbol_15_0_Layer0_0_MEMBER_0_FILL"
         id="use1161"
         x="0"
         y="0"
         width="100%"
         height="100%" />
    </g>
    <g
       id="g1167">
      <use
         xlink:href="#Symbol_15_0_Layer0_1_FILL"
         id="use1165"
         x="0"
         y="0"
         width="100%"
         height="100%" />
    </g>
    <g
       id="g1171">
      <use
         xlink:href="#Symbol_15_0_Layer0_1_MEMBER_0_FILL"
         id="use1169"
         x="0"
         y="0"
         width="100%"
         height="100%" />
    </g>
    <g
       id="g1175">
      <use
         xlink:href="#Symbol_15_0_Layer0_2_FILL"
         id="use1173"
         x="0"
         y="0"
         width="100%"
         height="100%" />
    </g>
  </g>
  <g
     transform="translate(315.20545,180.31728)"
     id="g1187">
    <g
       id="g1181">
      <use
         xlink:href="#Symbol_18_0_Layer0_0_FILL"
         id="use1179"
         x="0"
         y="0"
         width="100%"
         height="100%" />
    </g>
    <g
       transform="matrix(0.7194519,0,0,0.7194519,36.2,-0.35)"
       id="g1185">
      <use
         xlink:href="#Symbol_18_0_Layer0_1_FILL"
         id="use1183"
         x="0"
         y="0"
         width="100%"
         height="100%" />
    </g>
  </g>
  <g
     id="g1542"
     transform="translate(282.20545,216.81728)">
    <g
       id="g1540">
      <use
         xlink:href="#Symbol_11_0_Layer0_0_FILL"
         id="use1538"
         x="0"
         y="0"
         width="100%"
         height="100%" />
    </g>
  </g>
  <g
     id="g1548"
     transform="translate(391.19621,221.31728)">
    <g
       id="g1546">
      <use
         xlink:href="#Symbol_9_0_Layer0_0_FILL"
         id="use1544"
         x="0"
         y="0"
         width="100%"
         height="100%" />
    </g>
  </g>
  <g
     id="g1554"
     transform="translate(397.33267,169.31728)">
    <g
       id="g1552">
      <use
         xlink:href="#Symbol_8_0_Layer0_0_FILL"
         id="use1550"
         x="0"
         y="0"
         width="100%"
         height="100%" />
    </g>
  </g>
</svg>
